<svg width="17" height="20" viewBox="0 0 17 20" fill="none" xmlns="http://www.w3.org/2000/svg">
<path d="M7.09821 2.15767C7.20897 2.19343 7.31801 2.2315 7.42877 2.26395C7.88729 2.39771 8.3183 2.58808 8.68566 2.88672C9.3977 3.46513 9.56831 4.19715 9.28315 5.02983C8.99284 5.87807 8.39604 6.5068 7.66508 7.02892C7.54916 7.11169 7.42361 7.18221 7.28224 7.27127C7.3555 7.02793 7.45354 6.82199 7.47246 6.60977C7.49722 6.32934 7.50204 6.03534 7.43978 5.76318C7.3531 5.3831 7.06416 5.19239 6.70229 5.19173C6.35247 5.1914 6.05389 5.41588 5.92903 5.7655C5.84269 6.00786 5.85232 6.24922 5.939 6.50051C5.6965 6.41939 5.47842 6.32835 5.25071 6.27438C4.62226 6.12506 4.1713 6.40085 4.09047 7.01203C4.04782 7.33385 4.24801 7.58713 4.50152 7.78744C4.83931 8.05396 5.23488 8.20824 5.6511 8.31883C6.13507 8.44729 6.62971 8.47344 7.12848 8.45623C7.24922 8.45192 7.33555 8.40689 7.41157 8.30525C7.85771 7.71129 8.42011 7.25472 9.14969 7.01535C9.45858 6.91403 9.77607 6.85477 10.107 6.93059C10.6467 7.05441 10.9666 7.44841 10.9907 7.98344C11.0223 8.68766 10.786 9.32433 10.4891 9.94644C10.0819 10.8 9.54802 11.5807 8.96945 12.3339C8.96325 12.3418 8.94984 12.3442 8.93677 12.3508C9.00281 12.1081 9.09122 11.871 9.12974 11.6267C9.26183 10.7907 8.93918 10.2173 7.93339 10.0928C6.91624 9.96697 6.00058 10.2974 5.12928 10.7324C4.31302 11.1397 3.53254 11.6131 2.73657 12.0578C2.73004 12.0614 2.72969 12.0753 2.72041 12.1021C3.41249 11.7737 4.09185 11.4512 4.79803 11.1165C5.00683 11.5446 5.20908 11.9601 5.41719 12.3872C3.88787 13.1199 2.32208 13.7609 0.880127 14.6535C1.28292 15.0094 1.6699 15.3521 2.05791 15.6937C3.05854 16.5757 3.91917 17.5677 4.55725 18.7232C5.03847 19.5949 6.05114 19.9184 6.8557 19.8187C7.22548 19.7727 7.49825 19.5727 7.68125 19.2817C7.96847 18.8248 8.23884 18.357 8.4896 17.8809C8.82188 17.2498 9.20026 16.6588 9.80669 16.2334C10.5621 15.7033 11.7178 15.7596 12.4268 16.3443C13.1065 16.9048 13.5144 17.613 13.6204 18.4563C13.6486 18.6814 13.6582 18.9043 13.6431 19.1224C15.7417 17.0581 16.9999 14.4247 16.9999 11.5565C16.9999 6.24955 12.6933 1.74713 6.72362 0.163879C7.21172 0.622101 7.44528 1.37333 7.09718 2.15767H7.09821ZM12.6958 12.0634C12.705 12.1121 12.7181 12.1521 12.7191 12.1922C12.7216 12.2968 12.7181 12.4014 12.7181 12.5061C12.7178 12.9788 12.7157 12.9719 12.2386 13.1023C11.3714 13.3394 10.5067 13.5854 9.64089 13.8268C9.54905 13.8522 9.45514 13.8714 9.33028 13.9012C9.33028 13.6155 9.32546 13.3573 9.33544 13.0994C9.33681 13.0593 9.39942 12.9994 9.44517 12.9861C10.1276 12.7868 10.8118 12.5938 11.4956 12.3998C11.8895 12.2882 12.284 12.1786 12.6958 12.0631V12.0634Z" fill="#FF284D"/>
</svg>
