<svg width="24" height="24" viewBox="0 0 24 24" fill="none" xmlns="http://www.w3.org/2000/svg">
<path d="M18.0055 2.37601H17.5243V1.89482C17.5243 1.09699 16.8776 0.451218 16.0807 0.451218C15.2839 0.451218 14.6371 1.09699 14.6371 1.89482V2.37601H8.86276V1.89482C8.86276 1.09699 8.21603 0.451218 7.41916 0.451218C6.62229 0.451218 5.97556 1.09699 5.97556 1.89482V2.37601H5.49436C2.57637 2.37601 0.201172 4.75025 0.201172 7.66921V18.2556C0.201172 21.1745 2.57637 23.5488 5.49436 23.5488H18.0055C20.9235 23.5488 23.2987 21.1745 23.2987 18.2556V7.66921C23.2987 4.75025 20.9235 2.37601 18.0055 2.37601ZM18.0055 20.6616H5.49436C4.16722 20.6616 3.08837 19.5818 3.08837 18.2556V9.1128H20.4115V18.2556C20.4115 19.5818 19.3327 20.6616 18.0055 20.6616ZM9.82516 12.4812V14.406C9.82516 15.2029 9.17843 15.8496 8.38156 15.8496H6.45676C5.6599 15.8496 5.01316 15.2029 5.01316 14.406V12.4812C5.01316 11.6843 5.6599 11.0376 6.45676 11.0376H8.38156C9.17843 11.0376 9.82516 11.6843 9.82516 12.4812Z" fill="#6C7278"/>
</svg>
