<svg width="15" height="11" viewBox="0 0 15 11" fill="none" xmlns="http://www.w3.org/2000/svg">
<path d="M3.54368 10.276H8.25418C9.87754 10.276 11.1982 8.95529 11.1982 7.33193V3.79905C11.1982 2.17569 9.87754 0.85498 8.25418 0.85498H3.54368C1.92032 0.85498 0.599609 2.17569 0.599609 3.79905V7.33193C0.599609 8.95529 1.92032 10.276 3.54368 10.276ZM14.7311 3.39453V7.70406C14.7311 8.14979 14.4838 8.55018 14.0852 8.7492C13.9186 8.83222 13.7396 8.87344 13.5617 8.87344C13.3139 8.87344 13.0689 8.79395 12.8616 8.6385C12.8399 8.62202 12.3759 8.16156 12.3759 8.16156V2.94173C12.3759 2.94173 12.8387 2.47716 12.8616 2.46009C13.2173 2.19276 13.6854 2.14978 14.0852 2.34939C14.485 2.549 14.7311 2.9488 14.7311 3.39453Z" fill="#FF284D"/>
</svg>
