<svg width="16" height="16" viewBox="0 0 16 16" fill="none" xmlns="http://www.w3.org/2000/svg">
<path d="M7.64716 10.4588C8.63523 10.4588 9.43622 9.65785 9.43622 8.66978C9.43622 7.68172 8.63523 6.88074 7.64716 6.88074C6.65908 6.88074 5.85809 7.68172 5.85809 8.66978C5.85809 9.65785 6.65908 10.4588 7.64716 10.4588Z" fill="white"/>
<path d="M13.0157 4.32482H11.3396C11.2323 4.32485 11.1276 4.29109 11.0406 4.22834C10.9535 4.16558 10.8884 4.07701 10.8545 3.97519L10.693 3.4901C10.625 3.28655 10.4948 3.10952 10.3207 2.98411C10.1465 2.8587 9.93737 2.79126 9.72278 2.79135H5.57369C5.35912 2.79141 5.15001 2.85897 4.97598 2.98447C4.80195 3.10997 4.67181 3.28705 4.60401 3.49061L4.44249 3.97519C4.40857 4.07701 4.34346 4.16558 4.2564 4.22834C4.16933 4.29109 4.06472 4.32485 3.95739 4.32482H2.28129C2.01016 4.32482 1.75013 4.43253 1.5584 4.62425C1.36668 4.81597 1.25897 5.076 1.25897 5.34713V11.481C1.25897 11.7521 1.36668 12.0122 1.5584 12.2039C1.75013 12.3956 2.01016 12.5033 2.28129 12.5033H13.0157C13.2868 12.5033 13.5469 12.3956 13.7386 12.2039C13.9303 12.0122 14.038 11.7521 14.038 11.481V5.34713C14.038 5.076 13.9303 4.81597 13.7386 4.62425C13.5469 4.43253 13.2868 4.32482 13.0157 4.32482ZM7.64849 11.481C6.09865 11.481 4.8371 10.2195 4.8371 8.66965C4.8371 7.11982 6.09865 5.85829 7.64849 5.85829C9.19833 5.85829 10.4599 7.11982 10.4599 8.66965C10.4599 10.2195 9.19833 11.481 7.64849 11.481ZM10.7155 6.36945C10.5799 6.36945 10.4499 6.31559 10.354 6.21973C10.2582 6.12387 10.2043 5.99386 10.2043 5.85829C10.2043 5.72272 10.2582 5.59271 10.354 5.49685C10.4499 5.40099 10.5799 5.34713 10.7155 5.34713C10.851 5.34713 10.981 5.40099 11.0769 5.49685C11.1728 5.59271 11.2266 5.72272 11.2266 5.85829C11.2266 5.99386 11.1728 6.12387 11.0769 6.21973C10.981 6.31559 10.851 6.36945 10.7155 6.36945Z" fill="white"/>
<path d="M3.04768 3.81386H2.02536C1.95757 3.81386 1.89256 3.78693 1.84463 3.739C1.7967 3.69107 1.76978 3.62607 1.76978 3.55828C1.76978 3.4905 1.7967 3.42549 1.84463 3.37756C1.89256 3.32963 1.95757 3.3027 2.02536 3.3027H3.04768C3.11546 3.3027 3.18047 3.32963 3.2284 3.37756C3.27633 3.42549 3.30326 3.4905 3.30326 3.55828C3.30326 3.62607 3.27633 3.69107 3.2284 3.739C3.18047 3.78693 3.11546 3.81386 3.04768 3.81386Z" fill="white"/>
</svg>
