<svg width="23" height="24" viewBox="0 0 23 24" fill="none" xmlns="http://www.w3.org/2000/svg">
<path d="M7.44897 12.1607H7.45915M11.2758 12.1607H11.286M15.1026 12.1607H15.1128M21.4433 11.9062C21.4474 13.4866 21.0782 15.0456 20.3657 16.4563C19.5209 18.1467 18.2221 19.5685 16.6148 20.5624C15.0076 21.5564 13.1554 22.0832 11.2656 22.084C9.96482 22.0873 8.6785 21.8378 7.47747 21.3521C6.97352 21.1483 6.42643 21.0553 5.89046 21.1461L3.28785 21.4233C2.40115 21.5177 1.65346 20.7699 1.7481 19.8832L2.02579 17.2814C2.11658 16.7454 2.02362 16.1984 1.81981 15.6944C1.33409 14.4934 1.08453 13.2071 1.08792 11.9062C1.08866 10.0165 1.6155 8.16427 2.60945 6.55703C3.6034 4.94979 5.0252 3.65102 6.71559 2.80619C8.12624 2.09367 9.68525 1.72443 11.2656 1.72855H11.8643C14.3601 1.86624 16.7173 2.91965 18.4848 4.6871C20.2522 6.45454 21.3056 8.81181 21.4433 11.3076V11.9062Z" stroke="#FF284D" stroke-width="2.18094" stroke-linecap="round" stroke-linejoin="round"/>
</svg>
