<svg width="19" height="19" viewBox="0 0 19 19" fill="none" xmlns="http://www.w3.org/2000/svg">
<g clip-path="url(#clip0_1556_9336)">
<path d="M7.63121 18.2723C3.35621 17.5073 0.116211 13.8173 0.116211 9.3623C0.116211 4.4123 4.16621 0.362305 9.11621 0.362305C14.0662 0.362305 18.1162 4.4123 18.1162 9.3623C18.1162 13.8173 14.8762 17.5073 10.6012 18.2723L10.1062 17.8673H8.12621L7.63121 18.2723Z" fill="url(#paint0_linear_1556_9336)"/>
<path d="M12.6263 11.8823L13.0313 9.36231H10.6463V7.60731C10.6463 6.88731 10.9163 6.34731 11.9963 6.34731H13.1663V4.05231C12.5363 3.96231 11.8163 3.87231 11.1863 3.87231C9.11627 3.87231 7.67627 5.13231 7.67627 7.38231V9.36231H5.42627V11.8823H7.67627V18.2273C8.17127 18.3173 8.66627 18.3623 9.16127 18.3623C9.65627 18.3623 10.1513 18.3173 10.6463 18.2273V11.8823H12.6263Z" fill="white"/>
</g>
<defs>
<linearGradient id="paint0_linear_1556_9336" x1="9.11666" y1="17.7363" x2="9.11666" y2="0.358989" gradientUnits="userSpaceOnUse">
<stop stop-color="#0062E0"/>
<stop offset="1" stop-color="#19AFFF"/>
</linearGradient>
<clipPath id="clip0_1556_9336">
<rect width="18" height="18" fill="white" transform="translate(0.116211 0.362305)"/>
</clipPath>
</defs>
</svg>
