<svg width="18" height="18" viewBox="0 0 18 18" fill="none" xmlns="http://www.w3.org/2000/svg">
<path d="M14.3083 3.91338L12.9226 2.52765C12.5932 2.19766 12.1544 2.01608 11.6882 2.01608H8.99999C7.59505 2.01608 6.41885 3.01769 6.1488 4.34406H6.09002C4.48546 4.34406 3.18005 5.64947 3.18005 7.25402V13.074C3.18005 14.6785 4.48546 15.9839 6.09002 15.9839H9.58198C11.1865 15.9839 12.4919 14.6785 12.4919 13.074V13.0152C13.8183 12.7445 14.8199 11.5689 14.8199 10.164V5.14779C14.8199 4.68161 14.6383 4.24279 14.3083 3.91338ZM9.58198 14.8199H6.09002C5.1274 14.8199 4.34404 14.0366 4.34404 13.074V7.25402C4.34404 6.2914 5.1274 5.50804 6.09002 5.50804V10.164C6.09002 11.7685 7.39543 13.074 8.99999 13.074H11.328C11.328 14.0366 10.5446 14.8199 9.58198 14.8199ZM11.91 11.91H8.99999C8.03737 11.91 7.25401 11.1266 7.25401 10.164V4.92605C7.25401 3.96343 8.03737 3.18007 8.99999 3.18007H11.328V4.34406C11.328 4.98716 11.8488 5.50804 12.4919 5.50804H13.6559V10.164C13.6559 11.1266 12.8726 11.91 11.91 11.91ZM12.4919 8.41801C12.4919 8.73927 12.2312 9 11.91 9H11.037V9.87299C11.037 10.1943 10.7762 10.455 10.455 10.455C10.1337 10.455 9.87298 10.1943 9.87298 9.87299V9H8.99999C8.67873 9 8.41799 8.73927 8.41799 8.41801C8.41799 8.09675 8.67873 7.83601 8.99999 7.83601H9.87298V6.96303C9.87298 6.64176 10.1337 6.38103 10.455 6.38103C10.7762 6.38103 11.037 6.64176 11.037 6.96303V7.83601H11.91C12.2312 7.83601 12.4919 8.09675 12.4919 8.41801Z" fill="#FF284D"/>
</svg>
