<svg width="107" height="107" viewBox="0 0 107 107" fill="none" xmlns="http://www.w3.org/2000/svg">
<g clip-path="url(#clip0_1556_8990)">
<path d="M28.9167 98.7209L24.329 91.0748C40.1249 81.5875 40.1249 61.2129 40.1249 49.0417C40.1249 45.4944 41.5341 42.0924 44.0424 39.5841C46.5507 37.0758 49.9526 35.6667 53.4999 35.6667C57.0472 35.6667 60.4492 37.0758 62.9575 39.5841C65.4658 42.0924 66.8749 45.4944 66.8749 49.0417H57.9583C57.9583 47.8592 57.4885 46.7252 56.6524 45.8891C55.8163 45.053 54.6823 44.5833 53.4999 44.5833C52.3175 44.5833 51.1835 45.053 50.3474 45.8891C49.5113 46.7252 49.0416 47.8592 49.0416 49.0417C49.0416 62.1804 49.0416 86.6432 28.9167 98.7209ZM66.4113 62.7912L57.5124 62.0422C56.1036 78.6673 50.7135 91.534 41.4981 100.295L47.6372 106.755C58.5066 96.4516 64.8152 81.6544 66.4291 62.7912H66.4113ZM78.6538 90.678L70.2677 87.6553C68.457 92.7231 66.0632 97.5632 63.1344 102.078L70.5976 106.955C73.9062 101.861 76.6098 96.3983 78.6538 90.678ZM84.7083 49.0417C84.704 42.7255 82.7834 36.5593 79.2003 31.3579C75.6171 26.1565 70.54 22.1648 64.64 19.9102C58.74 17.6556 52.2947 17.2443 46.156 18.7306C40.0172 20.2169 34.4739 23.5309 30.2586 28.2346L36.8971 34.182C39.9077 30.8217 43.8671 28.454 48.252 27.3918C52.637 26.3297 57.241 26.6231 61.4556 28.2333C65.6702 29.8435 69.297 32.6947 71.8567 36.41C74.4164 40.1253 75.7885 44.5299 75.7916 49.0417C75.956 57.7211 75.2661 66.3957 73.7318 74.9401L82.4835 76.6432C84.1338 67.5386 84.879 58.293 84.7083 49.0417ZM31.2083 49.0417C31.207 47.7973 31.3099 46.555 31.5159 45.3279L22.7374 43.8388C22.4431 45.5575 22.294 47.2979 22.2916 49.0417C22.2916 69.7506 16.2907 80.25 4.45825 80.25V89.1667C21.7075 89.1667 31.2083 74.9 31.2083 49.0417ZM102.542 49.0417C102.562 41.636 100.884 34.3243 97.6374 27.6684L89.6124 31.5694C92.2653 37.0112 93.6378 42.9877 93.6249 49.0417C94.2352 67.2907 90.7718 85.4465 83.4867 102.189L91.5117 106.028C99.3988 88.095 103.168 68.6226 102.542 49.0417ZM13.3749 49.0417C13.3867 38.4035 17.618 28.2044 25.1403 20.682C32.6626 13.1597 42.8617 8.92845 53.4999 8.91665C62.1864 8.88771 70.6431 11.7066 77.5749 16.9417L82.9249 9.80832C74.4513 3.41249 64.1163 -0.0324993 53.4999 -1.65228e-05C40.498 0.0153222 28.0329 5.18712 18.8392 14.3809C9.64539 23.5747 4.47359 36.0397 4.45825 49.0417V62.4167H13.3749V49.0417Z" fill="black"/>
</g>
<defs>
<clipPath id="clip0_1556_8990">
<rect width="107" height="107" fill="white"/>
</clipPath>
</defs>
</svg>
