<svg width="19" height="19" viewBox="0 0 19 19" fill="none" xmlns="http://www.w3.org/2000/svg">
<path d="M17.4921 9.53723C17.4921 8.88974 17.4385 8.41724 17.3225 7.92725H9.77783V10.8497H14.2064C14.1171 11.576 13.635 12.6697 12.5635 13.4047L12.5485 13.5025L14.934 15.3136L15.0992 15.3297C16.6171 13.956 17.4921 11.9347 17.4921 9.53723" fill="#4285F4"/>
<path d="M9.7772 17.2372C11.9468 17.2372 13.7682 16.5372 15.0986 15.3297L12.5629 13.4047C11.8843 13.8684 10.9736 14.1922 9.7772 14.1922C7.65222 14.1922 5.84867 12.8184 5.20575 10.9197L5.11151 10.9275L2.63107 12.8088L2.59863 12.8972C3.92004 15.4697 6.63432 17.2372 9.7772 17.2372Z" fill="#34A853"/>
<path d="M5.20619 10.9199C5.03655 10.4299 4.93838 9.90487 4.93838 9.3624C4.93838 8.81987 5.03655 8.29489 5.19727 7.80489L5.19277 7.70054L2.68124 5.78906L2.59906 5.82737C2.05445 6.89488 1.74194 8.09365 1.74194 9.3624C1.74194 10.6311 2.05445 11.8299 2.59906 12.8974L5.20619 10.9199" fill="#FBBC05"/>
<path d="M9.77724 4.53228C11.2861 4.53228 12.304 5.17103 12.8844 5.70482L15.1522 3.5348C13.7594 2.26606 11.9469 1.4873 9.77724 1.4873C6.63435 1.4873 3.92005 3.25479 2.59863 5.82727L5.19684 7.8048C5.84869 5.90605 7.65225 4.53228 9.77724 4.53228" fill="#EB4335"/>
</svg>
