<svg width="22" height="22" viewBox="0 0 22 22" fill="none" xmlns="http://www.w3.org/2000/svg">
<path d="M20.2098 5.3766L19.9476 5.18102C19.7165 4.99146 19.7758 5.01515 19.5981 4.92037C19.059 4.5531 19.1953 4.6775 18.7451 4.35761L18.4179 4.15986L13.7561 1.01408C12.2338 -0.0127096 10.2662 -0.0127096 8.74398 1.01408L2.47213 5.24668C1.23658 6.08084 0.498291 7.46871 0.498291 8.96051V17.2716C0.498291 19.7418 2.50797 21.7515 4.97818 21.7515H7.66612C8.16159 21.7515 8.56209 21.3501 8.56209 20.8555V13.6877C8.56209 13.194 8.96349 12.7917 9.45807 12.7917H13.042C13.5366 12.7917 13.938 13.194 13.938 13.6877V20.8555C13.938 21.3501 14.3385 21.7515 14.8339 21.7515H17.5219C19.9921 21.7515 22.0018 19.7418 22.0018 17.2716V8.96051C22.0018 7.54397 21.3352 6.22061 20.2098 5.3766ZM20.2098 17.2716C20.2098 18.7536 19.0038 19.9595 17.5219 19.9595H15.7299V13.6877C15.7299 12.2057 14.5239 10.9998 13.042 10.9998H9.45807C7.97612 10.9998 6.77014 12.2057 6.77014 13.6877V19.9595H4.97818C3.49623 19.9595 2.29025 18.7536 2.29025 17.2716V8.96051C2.29025 8.06543 2.73286 7.23217 3.47473 6.73221L9.74658 2.49961C10.6605 1.88318 11.8396 1.88318 12.7526 2.49961L19.0244 6.73221C19.7663 7.23217 20.2089 8.06543 20.2089 8.96051L20.2098 17.2716Z" fill="#707B81"/>
</svg>
