<svg width="7" height="11" viewBox="0 0 7 11" fill="none" xmlns="http://www.w3.org/2000/svg">
<path d="M6.08006 10.4035C6.26631 10.2162 6.37085 9.96273 6.37085 9.69854C6.37085 9.43436 6.26631 9.18091 6.08006 8.99354L2.54006 5.40354L6.08006 1.86354C6.26631 1.67618 6.37085 1.42273 6.37085 1.15854C6.37085 0.894358 6.26631 0.640906 6.08006 0.453544C5.98709 0.359815 5.87649 0.285421 5.75463 0.234652C5.63277 0.183883 5.50207 0.157745 5.37006 0.157745C5.23805 0.157745 5.10734 0.183883 4.98548 0.234652C4.86362 0.285421 4.75302 0.359815 4.66006 0.453544L0.420057 4.69354C0.326329 4.78651 0.251935 4.89711 0.201166 5.01897C0.150397 5.14083 0.124259 5.27153 0.124259 5.40354C0.124259 5.53556 0.150397 5.66626 0.201166 5.78812C0.251935 5.90998 0.326329 6.02058 0.420057 6.11354L4.66006 10.4035C4.75302 10.4973 4.86362 10.5717 4.98548 10.6224C5.10734 10.6732 5.23805 10.6993 5.37006 10.6993C5.50207 10.6993 5.63277 10.6732 5.75463 10.6224C5.87649 10.5717 5.98709 10.4973 6.08006 10.4035Z" fill="#A2A2A2"/>
</svg>
