<svg width="14" height="18" viewBox="0 0 14 18" fill="none" xmlns="http://www.w3.org/2000/svg">
<path d="M10.0772 1.5C9.90851 0.645 9.17397 0 8.29542 0H6.1136C5.23506 0 4.50124 0.645 4.33179 1.5H0.659058V16.125C0.659058 17.1585 1.47506 18 2.47724 18H11.9318C12.934 18 13.75 17.1585 13.75 16.125V1.5H10.0772ZM13.0227 16.125C13.0227 16.7453 12.5332 17.25 11.9318 17.25H2.47724C1.87578 17.25 1.38633 16.7453 1.38633 16.125V2.25H5.02269V1.875C5.02269 1.25475 5.51215 0.75 6.1136 0.75H8.29542C8.89688 0.75 9.38633 1.25475 9.38633 1.875V2.25H13.0227V16.125ZM7.56815 6H9.74997V6.75H7.56815V9H6.84088V6.75H4.65906V6H6.84088V3.75H7.56815V6ZM3.56815 11.25H10.8409V12H3.56815V11.25ZM3.56815 14.25H8.65906V15H3.56815V14.25Z" fill="#FF284D"/>
</svg>
