<svg width="14" height="18" viewBox="0 0 14 18" fill="none" xmlns="http://www.w3.org/2000/svg">
<path d="M10.3272 1.5C10.1585 0.645 9.42397 0 8.54542 0H6.3636C5.48506 0 4.75124 0.645 4.58179 1.5H0.909058V16.125C0.909058 17.1585 1.72506 18 2.72724 18H12.1818C13.184 18 14 17.1585 14 16.125V1.5H10.3272ZM13.2727 16.125C13.2727 16.7453 12.7832 17.25 12.1818 17.25H2.72724C2.12578 17.25 1.63633 16.7453 1.63633 16.125V2.25H5.27269V1.875C5.27269 1.25475 5.76215 0.75 6.3636 0.75H8.54542C9.14688 0.75 9.63633 1.25475 9.63633 1.875V2.25H13.2727V16.125ZM7.81815 6H9.99997V6.75H7.81815V9H7.09088V6.75H4.90906V6H7.09088V3.75H7.81815V6ZM3.81815 11.25H11.0909V12H3.81815V11.25ZM3.81815 14.25H8.90906V15H3.81815V14.25Z" fill="#FF284D"/>
</svg>
