<svg width="22" height="22" viewBox="0 0 22 22" fill="none" xmlns="http://www.w3.org/2000/svg">
<path d="M20.6426 10.4641C20.6463 11.8783 20.3159 13.2733 19.6784 14.5355C18.9224 16.0481 17.7602 17.3204 16.3221 18.2098C14.8839 19.0992 13.2265 19.5706 11.5355 19.5712C10.1214 19.5749 8.72634 19.2445 7.46408 18.607L1.35693 20.6427L3.39265 14.5355C2.75507 13.2733 2.42468 11.8783 2.42836 10.4641C2.42902 8.77313 2.90045 7.11573 3.78985 5.67755C4.67925 4.23937 5.95149 3.07721 7.46408 2.32125C8.72634 1.68368 10.1214 1.35328 11.5355 1.35696H12.0712C14.3044 1.48017 16.4138 2.42278 17.9953 4.00431C19.5768 5.58585 20.5194 7.69516 20.6426 9.92839V10.4641Z" stroke="#6C7380" stroke-linecap="round" stroke-linejoin="round"/>
</svg>
