<svg width="18" height="22" viewBox="0 0 18 22" fill="none" xmlns="http://www.w3.org/2000/svg">
<path d="M15.4895 7.97519L14.7443 8.05977L15.4895 7.97519ZM15.9367 11.9153L16.6819 11.8307V11.8307L15.9367 11.9153ZM2.56328 11.9153L1.81806 11.8307L1.81806 11.8307L2.56328 11.9153ZM3.01046 7.97519L3.75568 8.05977L3.01046 7.97519ZM1.69779 13.8721L1.12668 13.386H1.12668L1.69779 13.8721ZM16.8022 13.8721L16.2311 14.3583L16.8022 13.8721ZM11.5199 3.37366H10.7699C10.7699 3.69424 10.9737 3.97938 11.277 4.08322L11.5199 3.37366ZM6.98005 3.37366L7.223 4.08322C7.5263 3.97938 7.73005 3.69424 7.73005 3.37366H6.98005ZM12.9523 19.2632C13.0977 18.8753 12.9011 18.4431 12.5132 18.2977C12.1253 18.1523 11.6931 18.3489 11.5477 18.7368L12.9523 19.2632ZM6.9523 18.7368C6.80694 18.3489 6.37467 18.1523 5.9868 18.2977C5.59893 18.4431 5.40234 18.8753 5.5477 19.2632L6.9523 18.7368ZM15.0272 16.25H3.47281V17.75H15.0272V16.25ZM14.7443 8.05977L15.1915 11.9998L16.6819 11.8307L16.2348 7.89061L14.7443 8.05977ZM3.30849 11.9998L3.75568 8.05977L2.26525 7.89061L1.81806 11.8307L3.30849 11.9998ZM2.26889 14.3583C2.84621 13.6801 3.21028 12.8652 3.30849 11.9998L1.81806 11.8307C1.75519 12.3846 1.52067 12.9231 1.12668 13.386L2.26889 14.3583ZM15.1915 11.9998C15.2897 12.8652 15.6538 13.6801 16.2311 14.3583L17.3733 13.386C16.9793 12.9231 16.7448 12.3846 16.6819 11.8307L15.1915 11.9998ZM3.47281 16.25C2.81777 16.25 2.35443 15.926 2.14056 15.5492C1.93409 15.1854 1.93714 14.748 2.26889 14.3583L1.12668 13.386C0.361406 14.285 0.337773 15.4116 0.835985 16.2895C1.32679 17.1544 2.29947 17.75 3.47281 17.75V16.25ZM15.0272 17.75C16.2005 17.75 17.1732 17.1544 17.664 16.2895C18.1622 15.4116 18.1386 14.285 17.3733 13.386L16.2311 14.3583C16.5629 14.748 16.5659 15.1854 16.3594 15.5492C16.1456 15.926 15.6822 16.25 15.0272 16.25V17.75ZM12.2699 3.37366V3.26995H10.7699V3.37366H12.2699ZM16.2348 7.89061C15.9555 5.43026 14.1306 3.47476 11.7629 2.6641L11.277 4.08322C13.1941 4.73962 14.5413 6.27101 14.7443 8.05977L16.2348 7.89061ZM7.73005 3.37366V3.26995H6.23005V3.37366H7.73005ZM3.75568 8.05977C3.9587 6.27101 5.30587 4.73962 7.223 4.08322L6.73711 2.6641C4.36944 3.47476 2.54449 5.43026 2.26525 7.89061L3.75568 8.05977ZM9.25 1.75C10.0894 1.75 10.7699 2.4305 10.7699 3.26995H12.2699C12.2699 1.60208 10.9179 0.25 9.25 0.25V1.75ZM9.25 0.25C7.58213 0.25 6.23005 1.60208 6.23005 3.26995H7.73005C7.73005 2.4305 8.41056 1.75 9.25 1.75V0.25ZM11.5477 18.7368C11.225 19.5979 10.3346 20.25 9.25 20.25V21.75C10.9355 21.75 12.4016 20.7325 12.9523 19.2632L11.5477 18.7368ZM9.25 20.25C8.16542 20.25 7.27502 19.5979 6.9523 18.7368L5.5477 19.2632C6.09835 20.7325 7.56452 21.75 9.25 21.75V20.25Z" fill="#707B81"/>
</svg>
