<svg width="29" height="28" viewBox="0 0 29 28" fill="none" xmlns="http://www.w3.org/2000/svg">
<path d="M11.2348 5.83333H8.90151C8.28267 5.83333 7.68918 6.07916 7.25159 6.51675C6.81401 6.95433 6.56818 7.54782 6.56818 8.16666V22.1667C6.56818 22.7855 6.81401 23.379 7.25159 23.8166C7.68918 24.2542 8.28267 24.5 8.90151 24.5H20.5682C21.187 24.5 21.7805 24.2542 22.2181 23.8166C22.6557 23.379 22.9015 22.7855 22.9015 22.1667V8.16666C22.9015 7.54782 22.6557 6.95433 22.2181 6.51675C21.7805 6.07916 21.187 5.83333 20.5682 5.83333H18.2348" stroke="#F0F4F6" stroke-width="1.5" stroke-linecap="round" stroke-linejoin="round"/>
<path d="M11.2349 5.83333C11.2349 5.21449 11.4807 4.621 11.9183 4.18342C12.3559 3.74583 12.9494 3.5 13.5682 3.5H15.9015C16.5204 3.5 17.1139 3.74583 17.5514 4.18342C17.989 4.621 18.2349 5.21449 18.2349 5.83333C18.2349 6.45217 17.989 7.04566 17.5514 7.48325C17.1139 7.92083 16.5204 8.16667 15.9015 8.16667H13.5682C12.9494 8.16667 12.3559 7.92083 11.9183 7.48325C11.4807 7.04566 11.2349 6.45217 11.2349 5.83333Z" stroke="white" stroke-width="1.5" stroke-linecap="round" stroke-linejoin="round"/>
<path d="M11.2349 16.3333H11.2461" stroke="white" stroke-width="1.5" stroke-linecap="round" stroke-linejoin="round"/>
<path d="M11.2349 19.8333H11.2461" stroke="white" stroke-width="1.5" stroke-linecap="round" stroke-linejoin="round"/>
<path d="M14.7349 18.6667L15.9015 19.8333L19.4015 16.3333" stroke="white" stroke-width="1.5" stroke-linecap="round" stroke-linejoin="round"/>
</svg>
