<svg width="21" height="20" viewBox="0 0 21 20" fill="none" xmlns="http://www.w3.org/2000/svg">
<path d="M0.150017 3.09006C-0.189483 2.20506 0.066017 1.22506 0.801892 0.594228C1.53602 -0.0341056 2.58164 -0.175772 3.46889 0.235061L19.2976 7.27173C20.1464 7.65006 20.7536 8.34089 20.9995 9.16589H3.54152L0.199892 3.19589C0.181517 3.16173 0.164892 3.12589 0.150017 3.09006ZM3.55377 10.8334L0.269892 16.8126C0.251517 16.8459 0.235767 16.8792 0.222642 16.9142C-0.115983 17.8001 0.142142 18.7784 0.878017 19.4084C1.33389 19.7976 1.90964 19.9984 2.48889 19.9984C2.84677 19.9984 3.20552 19.9217 3.53977 19.7659L19.2994 12.7342C20.1508 12.3542 20.7571 11.6609 21.0013 10.8342H3.55377V10.8334Z" fill="#FF284D"/>
</svg>
