<svg width="11" height="14" viewBox="0 0 11 14" fill="none" xmlns="http://www.w3.org/2000/svg">
<path d="M1.51241 0.501494C1.81262 0.492822 2.08679 0.59135 2.33292 0.767768C2.3371 0.770719 2.34127 0.773671 2.34557 0.776713C2.4107 0.822908 2.47146 0.87323 2.53067 0.927269C2.53742 0.933408 2.54416 0.939547 2.5511 0.945872C2.58702 0.97901 2.62156 1.01318 2.65518 1.04879C2.67462 1.06905 2.69416 1.08919 2.71389 1.10914C2.75847 1.15446 2.80015 1.19992 2.83829 1.25129C2.86652 1.28554 2.89106 1.30495 2.93487 1.30941C2.97486 1.30601 3.00345 1.29699 3.03078 1.266C3.04856 1.24382 3.06525 1.22083 3.0819 1.19773C3.10829 1.16113 3.13807 1.12798 3.16787 1.09437C3.17645 1.08427 3.185 1.07414 3.19351 1.06398C3.45873 0.748919 3.8144 0.539289 4.22183 0.504068C4.6263 0.477289 5.03208 0.581132 5.34116 0.862872C5.36919 0.888851 5.39652 0.91553 5.4237 0.94246C5.43168 0.950141 5.43168 0.950141 5.43983 0.957977C5.50366 1.02107 5.56034 1.0959 5.59948 1.17791C5.55101 1.19973 5.50627 1.20613 5.45391 1.21114C4.87164 1.27472 4.39577 1.56475 3.99004 1.98818C3.9795 1.99914 3.96897 2.01011 3.95843 2.02107C3.93591 2.04449 3.91341 2.06792 3.89092 2.09136C3.85533 2.12845 3.8197 2.16549 3.78407 2.20253C3.68281 2.3078 3.58158 2.41309 3.48042 2.51847C3.42442 2.5768 3.36838 2.6351 3.31229 2.69335C3.27687 2.73015 3.2415 2.76699 3.20616 2.80387C3.18419 2.82678 3.16217 2.84964 3.14014 2.87249C3.12995 2.88307 3.11978 2.89368 3.10962 2.90431C3.09575 2.91883 3.0818 2.93328 3.06784 2.94772C3.06386 2.95191 3.05988 2.95611 3.05578 2.96044C3.02421 2.99284 2.99153 3.02148 2.94586 3.02595C2.86484 2.99604 2.79335 2.8943 2.73346 2.83182C2.7223 2.82021 2.71114 2.8086 2.69998 2.79699C2.67607 2.77212 2.65217 2.74724 2.62828 2.72235C2.59048 2.68297 2.55263 2.64362 2.51478 2.60428C2.40719 2.49246 2.29963 2.3806 2.19215 2.26867C2.1327 2.20675 2.0732 2.14486 2.01366 2.08303C1.97605 2.04397 1.93849 2.00485 1.90096 1.9657C1.87759 1.94134 1.85417 1.91703 1.83074 1.89273C1.81991 1.88149 1.80911 1.87023 1.79833 1.85895C1.71438 1.77114 1.63116 1.68552 1.50504 1.67855C1.39089 1.68198 1.27087 1.73956 1.19036 1.82352C1.1305 1.89652 1.09935 1.97792 1.10047 2.07342C1.10526 2.12971 1.13149 2.16917 1.16807 2.20948C1.18287 2.22588 1.1972 2.24263 1.21153 2.25947C1.25128 2.30534 1.29309 2.34893 1.3352 2.39245C1.34832 2.40601 1.3614 2.41962 1.37448 2.43323C1.383 2.44206 1.39152 2.45089 1.40004 2.45971C1.40577 2.46567 1.40577 2.46567 1.41161 2.47175C1.43177 2.49253 1.45239 2.51235 1.47396 2.53154C1.50449 2.55915 1.53321 2.58825 1.56172 2.61806C1.56708 2.62364 1.57245 2.62922 1.57797 2.63496C1.59579 2.6535 1.61358 2.67206 1.63137 2.69062C1.6442 2.70397 1.65703 2.71733 1.66986 2.73068C1.69741 2.75935 1.72496 2.78804 1.7525 2.81674C1.79605 2.86212 1.83965 2.90746 1.88325 2.95279C1.8982 2.96833 1.91314 2.98386 1.92809 2.9994C1.93369 3.00522 1.93369 3.00522 1.9394 3.01116C1.98182 3.05526 2.02422 3.09936 2.06663 3.14347C2.0705 3.1475 2.07437 3.15153 2.07836 3.15568C2.14117 3.22102 2.20395 3.2864 2.26671 3.35179C2.33124 3.41904 2.39584 3.48622 2.46048 3.55336C2.5003 3.59472 2.54007 3.63612 2.57979 3.67759C2.61022 3.70936 2.64073 3.74104 2.67127 3.7727C2.68376 3.78568 2.69623 3.79869 2.70868 3.81172C2.72568 3.82952 2.74277 3.84723 2.75989 3.86491C2.76478 3.87008 2.76967 3.87524 2.77471 3.88056C2.81459 3.92144 2.85973 3.95459 2.91756 3.9589C3.06344 3.94885 3.21149 3.77332 3.31724 3.67957C3.32922 3.66899 3.34126 3.65848 3.35332 3.64799C3.4579 3.55662 3.55567 3.45809 3.65162 3.35712C3.6603 3.34803 3.6603 3.34803 3.66914 3.33875C3.67418 3.33344 3.67922 3.32813 3.68441 3.32265C3.69872 3.30839 3.7132 3.29505 3.72828 3.2817C3.76692 3.24687 3.80273 3.20914 3.83877 3.17148C3.85158 3.15811 3.8644 3.14476 3.87723 3.13141C3.90447 3.10309 3.93167 3.07473 3.95888 3.04636C3.99044 3.01345 4.02201 2.98056 4.05361 2.94769C4.06615 2.93464 4.07867 2.92156 4.09119 2.90848C4.12658 2.87161 4.16221 2.83563 4.20037 2.80182C4.22972 2.77475 4.25709 2.74552 4.28473 2.71661C4.29606 2.70476 4.3074 2.69295 4.31876 2.68114C4.34286 2.65606 4.36693 2.63095 4.391 2.60583C4.41893 2.57669 4.44687 2.54756 4.47484 2.51846C4.48592 2.50692 4.49698 2.49536 4.50804 2.48379C4.54188 2.44852 4.57614 2.41432 4.61259 2.38194C4.63159 2.36475 4.64906 2.34639 4.66671 2.32771C4.67416 2.31989 4.68162 2.31207 4.68907 2.30425C4.70046 2.29225 4.71183 2.28024 4.72319 2.26821C4.77355 2.21493 4.82533 2.16627 4.88171 2.11973C4.8897 2.11264 4.89765 2.10549 4.90552 2.09825C5.00482 2.00756 5.11589 1.93216 5.23327 1.86909C5.238 1.86652 5.24273 1.86395 5.2476 1.8613C5.38547 1.7873 5.53393 1.74024 5.68737 1.71718C5.69226 1.71641 5.69714 1.71564 5.70218 1.71484C5.84843 1.69466 6.01223 1.70018 6.15611 1.73237C6.16287 1.73388 6.16963 1.73539 6.17659 1.73694C6.36119 1.7797 6.53712 1.86044 6.69077 1.97542C6.69787 1.98071 6.70497 1.986 6.71228 1.99144C7.07074 2.26443 7.29761 2.65195 7.36707 3.10826C7.37414 3.16406 7.37369 3.2204 7.37374 3.27659C7.37375 3.28467 7.37375 3.28467 7.37376 3.29292C7.37363 3.38209 7.36827 3.46795 7.34994 3.55525C7.34823 3.56378 7.34823 3.56378 7.34648 3.57248C7.27421 3.9227 7.07005 4.19692 6.83073 4.44381C6.8228 4.45201 6.81488 4.46021 6.80697 4.46842C6.78647 4.48965 6.76594 4.51086 6.74542 4.53206C6.72434 4.55384 6.70328 4.57565 6.68221 4.59745C6.64114 4.63996 6.60005 4.68245 6.55893 4.72492C6.58245 4.77574 6.62555 4.80957 6.66616 4.84589C6.68783 4.86564 6.70898 4.88592 6.73014 4.90626C6.77039 4.94494 6.81101 4.98318 6.8519 5.02114C6.8875 5.05424 6.92303 5.08742 6.95823 5.12097C6.96939 5.1316 6.98058 5.14219 6.99177 5.15278C7.00538 5.16576 7.01888 5.17886 7.03223 5.19212C7.03798 5.19774 7.04373 5.20335 7.04965 5.20913C7.05463 5.2141 7.05962 5.21907 7.06476 5.2242C7.07795 5.23525 7.07795 5.23525 7.092 5.23286C7.11533 5.22332 7.1297 5.20803 7.14795 5.19026C7.15177 5.18655 7.15558 5.18285 7.15951 5.17904C7.2051 5.13447 7.24914 5.08825 7.29318 5.04203C7.38376 4.94695 7.38376 4.94695 7.41528 4.9192C7.46215 4.87781 7.50443 4.83104 7.54769 4.78569C7.64801 4.68051 7.64802 4.68051 7.67929 4.65301C7.7274 4.61066 7.77067 4.56253 7.81502 4.51605C7.83369 4.49649 7.85238 4.47695 7.87109 4.45743C7.87525 4.45305 7.87941 4.44867 7.8837 4.44416C7.90487 4.42208 7.92644 4.40098 7.94921 4.38069C7.98479 4.34878 8.01768 4.31429 8.05076 4.27965C8.05737 4.27277 8.06397 4.26589 8.07078 4.2588C8.09174 4.23697 8.11268 4.21512 8.13362 4.19325C8.16121 4.16443 8.18884 4.13564 8.21647 4.10686C8.22271 4.10032 8.22896 4.09378 8.23539 4.08705C8.26717 4.05396 8.29947 4.02215 8.33363 3.99172C8.34817 3.97865 8.36185 3.96492 8.37531 3.95068C8.38015 3.94561 8.38498 3.94053 8.38996 3.93531C8.39479 3.9302 8.39963 3.92509 8.40461 3.91982C8.4423 3.87997 8.48097 3.84227 8.52179 3.80589C8.52982 3.79851 8.53783 3.79111 8.54583 3.7837C8.85296 3.50222 9.2229 3.38775 9.62774 3.40334C9.67752 3.40659 9.72561 3.41473 9.77422 3.42613C9.78085 3.42764 9.78749 3.42914 9.79432 3.4307C10.0852 3.49851 10.3435 3.66217 10.5579 3.87425C10.5641 3.88032 10.5704 3.88639 10.5768 3.89264C10.6233 3.93914 10.6632 3.98958 10.7019 4.04302C10.7082 4.05171 10.7146 4.06037 10.721 4.06898C10.854 4.2478 10.9468 4.46431 10.9827 4.68695C10.984 4.6951 10.9854 4.70326 10.9868 4.71166C10.9979 4.7872 10.9998 4.86155 10.9997 4.93784C10.9996 4.95835 10.9998 4.97885 11 4.99936C11.0004 5.12084 10.9866 5.23787 10.9525 5.35439C10.9503 5.362 10.9481 5.36962 10.9458 5.37746C10.8898 5.56511 10.8001 5.73365 10.6824 5.88701C10.6745 5.89761 10.6745 5.89761 10.6664 5.90843C10.6354 5.94971 10.602 5.98847 10.5678 6.02699C10.5539 6.04278 10.5402 6.05874 10.5268 6.07499C10.4981 6.10916 10.4682 6.14209 10.4383 6.1751C10.4343 6.17961 10.4302 6.18412 10.426 6.18877C10.4193 6.19619 10.4193 6.19619 10.4124 6.20375C10.3971 6.22088 10.3818 6.23814 10.3666 6.25541C10.3203 6.30782 10.2727 6.35867 10.2241 6.40884C10.2117 6.42165 10.1994 6.43451 10.187 6.44737C10.1458 6.49008 10.1042 6.53138 10.0599 6.57059C10.049 6.58101 10.0382 6.59145 10.0274 6.60192C9.77204 6.83997 9.4473 7.00541 9.1004 7.01871C9.09537 7.01892 9.09034 7.01912 9.08516 7.01934C8.69983 7.03311 8.33664 6.88586 8.05431 6.61604C8.04032 6.60278 8.02603 6.59019 8.0114 6.57771C7.98839 6.55741 7.96898 6.53495 7.94948 6.51107C7.94035 6.50004 7.93096 6.48924 7.92133 6.47867C7.87855 6.43155 7.84289 6.38088 7.80782 6.32739C7.80395 6.32163 7.80009 6.31587 7.79611 6.30994C7.79269 6.30474 7.78928 6.29953 7.78576 6.29417C7.77279 6.27981 7.76394 6.27722 7.74544 6.27437C7.7432 6.2804 7.7432 6.2804 7.74092 6.28656C7.72639 6.31265 7.70661 6.33173 7.68593 6.35269C7.6816 6.35714 7.67726 6.36159 7.6728 6.36617C7.64726 6.39219 7.62107 6.41694 7.59375 6.44093C7.56893 6.46421 7.5456 6.48897 7.52205 6.51362C7.49039 6.54678 7.45872 6.57899 7.42429 6.60907C7.39626 6.63519 7.37017 6.66339 7.34367 6.69117C7.31704 6.71896 7.29002 6.74557 7.26096 6.77064C7.24652 6.78364 7.24652 6.78364 7.23155 6.80132C7.18409 6.85536 7.18409 6.85536 7.14898 6.86158C7.05915 6.86255 6.9827 6.79112 6.92082 6.73181C6.90513 6.71678 6.88917 6.70225 6.87296 6.68784C6.8529 6.66976 6.83394 6.65097 6.81528 6.63135C6.79253 6.60743 6.76895 6.58519 6.74441 6.56329C6.72282 6.54364 6.70176 6.52343 6.6807 6.50318C6.64654 6.47034 6.61213 6.43783 6.57745 6.40559C6.55651 6.38603 6.53574 6.36629 6.51499 6.34652C6.48826 6.32106 6.46144 6.29571 6.43442 6.27057C6.40361 6.2419 6.37307 6.21292 6.34259 6.18388C6.31961 6.162 6.29651 6.14027 6.27329 6.11866C6.24248 6.08999 6.21194 6.06102 6.18146 6.03197C6.15848 6.0101 6.13538 5.98836 6.11216 5.96676C6.08135 5.93808 6.05081 5.90911 6.02033 5.88006C5.99735 5.85819 5.97425 5.83646 5.95103 5.81485C5.92402 5.78971 5.8972 5.76436 5.87047 5.7389C5.84246 5.71224 5.81442 5.68562 5.78624 5.65915C5.78058 5.65382 5.77491 5.6485 5.76907 5.64301C5.7545 5.62987 5.7396 5.61775 5.72399 5.60598C5.69523 5.61807 5.67588 5.63859 5.65445 5.66107C5.65045 5.6652 5.64646 5.66933 5.64234 5.67359C5.6289 5.68751 5.6155 5.70148 5.60211 5.71546C5.59241 5.72552 5.58271 5.73558 5.573 5.74563C5.54629 5.77333 5.51962 5.80108 5.49295 5.82884C5.46421 5.85874 5.43543 5.8886 5.40665 5.91846C5.35677 5.97023 5.30692 6.02202 5.25708 6.07384C5.18501 6.14878 5.11288 6.22367 5.04074 6.29854C4.92367 6.42005 4.80663 6.54159 4.68962 6.66315C4.68611 6.66679 4.68261 6.67043 4.679 6.67417C4.62572 6.72952 4.57245 6.78487 4.51917 6.84022C4.46236 6.89924 4.40554 6.95827 4.34872 7.01729C4.34522 7.02092 4.34172 7.02456 4.33812 7.02831C4.21801 7.15307 4.09788 7.27781 3.97772 7.40253C3.90574 7.47724 3.83378 7.55199 3.76186 7.62676C3.71261 7.67797 3.66333 7.72915 3.61402 7.78031C3.58555 7.80986 3.55709 7.83942 3.52866 7.86901C3.50266 7.89608 3.47663 7.9231 3.45057 7.95011C3.44112 7.95991 3.43169 7.96972 3.42227 7.97955C3.40951 7.99285 3.39671 8.00611 3.38389 8.01936C3.3802 8.02323 3.37652 8.0271 3.37272 8.03108C3.34487 8.05971 3.32286 8.07652 3.28323 8.07778C3.27805 8.07808 3.27288 8.07839 3.26755 8.0787C3.20009 8.06372 3.15127 7.99961 3.10467 7.95086C3.09624 7.94212 3.0878 7.93338 3.07935 7.92465C3.05654 7.90104 3.0338 7.87735 3.01108 7.85365C2.98721 7.82879 2.96328 7.80398 2.93936 7.77917C2.8992 7.7375 2.85908 7.69578 2.819 7.65404C2.76766 7.60058 2.71625 7.54719 2.66482 7.49382C2.62047 7.4478 2.57614 7.40173 2.53182 7.35567C2.51765 7.34094 2.50347 7.32621 2.48928 7.31148C2.46693 7.28826 2.4446 7.26503 2.42228 7.24177C2.41413 7.23328 2.40596 7.22479 2.39779 7.21631C2.35887 7.1759 2.32036 7.13541 2.28464 7.0919C2.09239 6.8591 2.09239 6.8591 1.83197 6.7432C1.72754 6.74043 1.64634 6.76805 1.56389 6.83642C1.55718 6.8414 1.55718 6.8414 1.55033 6.84648C1.4773 6.90406 1.42741 6.99866 1.41469 7.09178C1.41188 7.14848 1.42619 7.19752 1.4608 7.24181C1.52911 7.31823 1.60018 7.39183 1.67115 7.46557C1.69064 7.48583 1.71011 7.50611 1.72958 7.52638C1.77642 7.57514 1.82329 7.62385 1.87017 7.67256C1.88342 7.68634 1.89668 7.70012 1.90993 7.71389C1.99243 7.79964 2.07494 7.88538 2.15749 7.97107C2.17654 7.99084 2.19558 8.01061 2.21462 8.03039C2.21935 8.0353 2.22408 8.04021 2.22896 8.04527C2.30576 8.12502 2.38249 8.20484 2.45919 8.28469C2.53809 8.36684 2.61707 8.44892 2.69611 8.53093C2.74043 8.57691 2.78471 8.62292 2.82892 8.66902C2.86652 8.70823 2.90418 8.74737 2.94193 8.78642C2.96116 8.80633 2.98037 8.82627 2.9995 8.84629C3.02026 8.86803 3.04117 8.88962 3.06209 8.9112C3.06807 8.9175 3.07404 8.92379 3.08019 8.93029C3.12307 8.97415 3.17169 9.01475 3.23379 9.02102C3.31431 9.0142 3.37926 8.9454 3.43886 8.89475C3.44879 8.88642 3.45871 8.87809 3.46865 8.86977C3.49342 8.84899 3.51813 8.82813 3.5428 8.80723C3.55453 8.7973 3.56627 8.7874 3.57802 8.7775C3.62563 8.73731 3.67261 8.69639 3.71934 8.65512C3.73198 8.64397 3.74465 8.63285 3.75732 8.62173C3.80851 8.57668 3.85843 8.53049 3.90755 8.48303C3.92659 8.46464 3.94587 8.44656 3.96528 8.42859C4.06628 8.33442 4.16306 8.2361 4.25897 8.13641C4.27756 8.11708 4.29619 8.09779 4.31483 8.07851C4.32942 8.0634 4.344 8.04828 4.35856 8.03315C4.36871 8.02263 4.37887 8.01212 4.38903 8.0016C4.42135 7.96796 4.45273 7.93395 4.48239 7.89776C4.49413 7.88387 4.50646 7.87091 4.51917 7.85799C4.53656 7.84026 4.55293 7.82209 4.56884 7.80292C4.59435 7.7725 4.62066 7.74299 4.64734 7.71368C4.65709 7.70295 4.66684 7.69222 4.67658 7.68149C4.68149 7.67609 4.6864 7.67069 4.69145 7.66512C4.70506 7.65009 4.71859 7.63498 4.73208 7.61984C4.78559 7.55993 4.8403 7.5014 4.8959 7.44357C4.90232 7.43688 4.90874 7.43019 4.91535 7.4233C4.94781 7.38972 4.98073 7.35726 5.01551 7.32628C5.03226 7.31129 5.04826 7.29552 5.06436 7.2798C5.1127 7.23415 5.16435 7.19343 5.21678 7.15298C5.22764 7.14458 5.23847 7.13615 5.24927 7.12767C5.58227 6.86632 5.97892 6.72441 6.3978 6.78325C6.55737 6.80956 6.71025 6.86229 6.8519 6.94276C6.86177 6.94821 6.87164 6.95366 6.88151 6.9591C7.23322 7.15602 7.50731 7.50153 7.62462 7.89775C7.73257 8.28212 7.70035 8.66376 7.51839 9.01627C7.51604 9.02085 7.51369 9.02543 7.51127 9.03015C7.40099 9.24308 7.23393 9.41122 7.07054 9.58042C7.05041 9.60128 7.0303 9.62216 7.01019 9.64303C6.97502 9.67954 6.93983 9.71602 6.90464 9.7525C6.8523 9.80675 6.79999 9.86101 6.74768 9.91528C6.65426 10.0122 6.56081 10.1091 6.46736 10.206C6.38563 10.2907 6.30391 10.3755 6.22219 10.4602C6.21676 10.4659 6.21134 10.4715 6.20575 10.4773C6.18373 10.5001 6.16171 10.523 6.1397 10.5458C5.93331 10.7598 5.7269 10.9739 5.52049 11.1879C5.33701 11.3781 5.15355 11.5684 4.9701 11.7587C4.76398 11.9725 4.55784 12.1862 4.35169 12.4C4.32973 12.4228 4.30778 12.4455 4.28582 12.4683C4.28042 12.4739 4.27501 12.4795 4.26944 12.4853C4.1877 12.57 4.10597 12.6548 4.02424 12.7396C3.9314 12.8359 3.83855 12.9322 3.74569 13.0284C3.69367 13.0823 3.64166 13.1363 3.58967 13.1902C3.555 13.2262 3.52032 13.2621 3.48563 13.2981C3.46583 13.3186 3.44603 13.3391 3.42625 13.3597C3.405 13.3817 3.38373 13.4038 3.36246 13.4258C3.35624 13.4323 3.35001 13.4387 3.3436 13.4454C3.33516 13.4541 3.33516 13.4541 3.32655 13.463C3.32168 13.4681 3.31681 13.4731 3.3118 13.4783C3.29561 13.4938 3.28701 13.4973 3.26492 13.5C3.23398 13.4968 3.22121 13.4855 3.19717 13.4652C3.19312 13.4619 3.18906 13.4585 3.18489 13.455C3.17178 13.444 3.15883 13.4328 3.1459 13.4216C3.14147 13.4177 3.13703 13.4139 3.13246 13.41C3.08603 13.3699 3.04075 13.3293 2.99878 13.2842C2.98577 13.2707 2.97238 13.2583 2.95835 13.246C2.92172 13.213 2.88775 13.1774 2.85362 13.1417C2.84328 13.1309 2.83293 13.1202 2.82259 13.1094C2.80098 13.0869 2.77942 13.0644 2.75784 13.0418C2.74001 13.0232 2.72217 13.0046 2.7043 12.986C2.69098 12.9721 2.67768 12.9582 2.66439 12.9443C2.63238 12.911 2.59988 12.879 2.56546 12.8483C2.54796 12.8325 2.53163 12.8156 2.51534 12.7985C2.50885 12.7917 2.50237 12.7849 2.49568 12.7779C2.48239 12.764 2.4691 12.75 2.4558 12.736C2.42789 12.7068 2.40016 12.6778 2.37 12.6511C2.32583 12.6119 2.28578 12.568 2.24497 12.5251C2.19523 12.4725 2.19523 12.4725 2.14273 12.423C2.0971 12.3826 2.05585 12.3371 2.01372 12.2929C1.96247 12.2386 1.96247 12.2386 1.90835 12.1876C1.86122 12.1458 1.81867 12.0987 1.77516 12.0531C1.72227 11.997 1.72227 11.9971 1.66643 11.9443C1.61936 11.9027 1.57689 11.8556 1.53346 11.81C1.48085 11.7543 1.48085 11.7543 1.42528 11.7018C1.37933 11.6611 1.3377 11.6155 1.29519 11.5711C1.28624 11.5618 1.27729 11.5525 1.26834 11.5432C1.2519 11.5261 1.23548 11.509 1.21907 11.4919C1.18119 11.4523 1.18119 11.4523 1.1427 11.4133C1.08968 11.3601 1.04381 11.3032 0.999936 11.2417C0.997009 11.2376 0.994082 11.2335 0.991067 11.2293C0.803681 10.9645 0.705385 10.6282 0.705141 10.3013C0.705136 10.2954 0.705131 10.2895 0.705126 10.2833C0.705248 10.1909 0.70932 10.1018 0.728944 10.0113C0.730162 10.0054 0.73138 9.99963 0.732635 9.99364C0.779044 9.77791 0.872358 9.57278 0.999936 9.39604C1.003 9.3917 1.00607 9.38737 1.00922 9.3829C1.0482 9.32777 1.09012 9.27661 1.1352 9.22681C1.15087 9.20935 1.1659 9.1916 1.18075 9.1734C1.20138 9.14876 1.22357 9.12745 1.24764 9.10647C1.25949 9.0959 1.271 9.08491 1.28231 9.07371C1.28868 9.06745 1.29504 9.06118 1.3016 9.05473C1.30744 9.04886 1.31329 9.043 1.31931 9.03695C1.33942 9.02195 1.34926 9.02097 1.37347 9.02387C1.37403 9.05978 1.37355 9.09463 1.36989 9.13035C1.347 9.3831 1.38699 9.62964 1.49065 9.85935C1.49285 9.86432 1.49505 9.86928 1.49732 9.87439C1.57102 10.0394 1.68266 10.1683 1.80572 10.2949C1.81814 10.3078 1.83055 10.3206 1.84296 10.3335C1.8695 10.361 1.89608 10.3885 1.92269 10.4159C1.96121 10.4556 1.99967 10.4954 2.03812 10.5352C2.1006 10.6 2.16313 10.6646 2.22569 10.7292C2.28626 10.7918 2.34682 10.8544 2.40736 10.917C2.41109 10.9209 2.41482 10.9247 2.41867 10.9287C2.45949 10.9709 2.5003 11.0132 2.54111 11.0554C2.5447 11.0591 2.54829 11.0628 2.55199 11.0667C2.56635 11.0815 2.58071 11.0964 2.59507 11.1112C2.64037 11.1581 2.6857 11.205 2.73105 11.2518C2.75705 11.2787 2.78303 11.3055 2.80901 11.3324C2.82102 11.3448 2.83305 11.3573 2.84508 11.3697C2.86155 11.3867 2.87799 11.4037 2.89442 11.4207C2.90151 11.428 2.90151 11.428 2.90874 11.4354C2.93627 11.464 2.96238 11.4934 2.98773 11.5241C3.00697 11.5469 3.02757 11.5682 3.04825 11.5896C3.05266 11.5942 3.05707 11.5987 3.06162 11.6035C3.07083 11.613 3.08006 11.6226 3.08929 11.6321C3.1034 11.6467 3.11746 11.6613 3.13152 11.676C3.14054 11.6853 3.14955 11.6946 3.15857 11.704C3.16483 11.7105 3.16483 11.7105 3.17122 11.7171C3.20728 11.7565 3.20728 11.7565 3.25393 11.7776C3.30854 11.7678 3.35135 11.7144 3.38917 11.6749C3.39417 11.6698 3.39917 11.6646 3.40432 11.6593C3.42101 11.642 3.43766 11.6247 3.4543 11.6074C3.4664 11.5949 3.4785 11.5824 3.49061 11.5699C3.52035 11.5391 3.55005 11.5083 3.57974 11.4775C3.61532 11.4405 3.65095 11.4037 3.68657 11.3668C3.76042 11.2903 3.83422 11.2138 3.90801 11.1372C3.96499 11.0781 4.02198 11.0191 4.07898 10.96C4.08717 10.9515 4.09536 10.943 4.10355 10.9345C4.1159 10.9217 4.12824 10.9089 4.14059 10.8961C4.25535 10.7772 4.37009 10.6582 4.4848 10.5392C4.48912 10.5347 4.49344 10.5303 4.4979 10.5256C4.51981 10.5029 4.54172 10.4802 4.56363 10.4575C4.56798 10.4529 4.57233 10.4484 4.57682 10.4438C4.58562 10.4347 4.59441 10.4255 4.60321 10.4164C4.74016 10.2743 4.87716 10.1323 5.01419 9.99036C5.16819 9.83082 5.32214 9.67124 5.47605 9.51161C5.49246 9.49459 5.50887 9.47757 5.52528 9.46055C5.52932 9.45636 5.53336 9.45217 5.53752 9.44785C5.59851 9.38459 5.65953 9.32137 5.72056 9.25816C5.78996 9.18628 5.85933 9.11435 5.92864 9.04238C5.96401 9.00565 5.9994 8.96894 6.03484 8.93229C6.06728 8.89873 6.09966 8.86512 6.13201 8.83147C6.14372 8.81931 6.15545 8.80716 6.1672 8.79504C6.18317 8.77855 6.19908 8.76199 6.21497 8.74541C6.22183 8.73839 6.22183 8.73839 6.22882 8.73122C6.29928 8.65724 6.3414 8.57494 6.34333 8.46941C6.34257 8.38612 6.31087 8.31856 6.25865 8.25674C6.25507 8.25224 6.25149 8.24774 6.2478 8.2431C6.19573 8.18283 6.11714 8.14012 6.03892 8.13522C5.90749 8.13243 5.82243 8.20689 5.73131 8.29472C5.69753 8.32851 5.66456 8.36314 5.63147 8.39765C5.62151 8.40801 5.61156 8.41836 5.6016 8.4287C5.58006 8.4511 5.55854 8.4735 5.53702 8.49591C5.502 8.53239 5.46696 8.56884 5.43191 8.60528C5.38762 8.65134 5.34334 8.69741 5.29907 8.74349C5.21211 8.83398 5.12511 8.92442 5.03808 9.01484C5.02437 9.02909 5.01066 9.04334 4.99694 9.05759C4.97616 9.07918 4.95539 9.10077 4.93461 9.12235C4.85637 9.20365 4.77813 9.28495 4.6999 9.36625C4.69633 9.36997 4.69275 9.37368 4.68907 9.3775C4.5731 9.49804 4.45719 9.61863 4.34131 9.73925C4.21868 9.8669 4.09597 9.99446 3.97317 10.1219C3.89968 10.1982 3.82626 10.2746 3.75292 10.3511C3.70269 10.4034 3.65239 10.4557 3.60202 10.5079C3.57296 10.538 3.54393 10.5682 3.515 10.5984C3.48851 10.6261 3.46193 10.6537 3.43526 10.6812C3.42564 10.6912 3.41604 10.7012 3.40649 10.7113C3.3159 10.8065 3.3159 10.8065 3.25576 10.8164C3.20741 10.8033 3.17432 10.7665 3.14035 10.7304C3.13501 10.7248 3.12966 10.7193 3.12416 10.7136C3.10662 10.6953 3.08918 10.677 3.07174 10.6586C3.05949 10.6458 3.04724 10.6331 3.03498 10.6203C3.00276 10.5867 2.97063 10.5531 2.93853 10.5194C2.88717 10.4656 2.83567 10.4119 2.78419 10.3582C2.76628 10.3395 2.74841 10.3207 2.73054 10.302C2.71948 10.2904 2.70842 10.2789 2.69736 10.2673C2.69245 10.2621 2.68755 10.257 2.6825 10.2516C2.66005 10.2282 2.63733 10.2056 2.61312 10.1841C2.58217 10.1561 2.55306 10.1266 2.52413 10.0965C2.51862 10.0908 2.51311 10.0851 2.50743 10.0792C2.48911 10.0602 2.47081 10.0411 2.45251 10.0221C2.43932 10.0084 2.42613 9.99471 2.41294 9.98102C2.3846 9.95161 2.35628 9.92219 2.32796 9.89276C2.28696 9.85014 2.24594 9.80756 2.20491 9.76497C2.13825 9.69579 2.0716 9.6266 2.00497 9.55739C2.00099 9.55325 1.99701 9.54912 1.9929 9.54486C1.9606 9.51131 1.9283 9.47776 1.896 9.4442C1.86776 9.41487 1.83952 9.38554 1.81128 9.35622C1.8073 9.35209 1.80333 9.34796 1.79923 9.3437C1.73283 9.27474 1.66642 9.20579 1.6 9.13686C1.55909 9.0944 1.51819 9.05193 1.47731 9.00944C1.44597 8.97687 1.41462 8.94432 1.38325 8.91178C1.37042 8.89845 1.3576 8.88513 1.34478 8.87179C1.32724 8.85355 1.30968 8.83534 1.29212 8.81713C1.28709 8.81188 1.28205 8.80663 1.27687 8.80123C1.24835 8.77171 1.21904 8.74358 1.1885 8.71631C1.17091 8.70056 1.15388 8.6842 1.13681 8.66784C1.11027 8.64271 1.08331 8.61858 1.05532 8.59521C1.01777 8.56377 0.98235 8.53042 0.946979 8.49641C0.930656 8.4808 0.914188 8.46549 0.897398 8.45042C0.834745 8.39382 0.774523 8.33512 0.715669 8.27431C0.710505 8.26899 0.705341 8.26367 0.700021 8.25819C0.666669 8.2235 0.635155 8.18761 0.604434 8.15041C0.598345 8.14319 0.592255 8.13598 0.585981 8.12854C0.392409 7.89361 0.324625 7.62709 0.318794 7.32252C0.318633 7.31467 0.318473 7.30683 0.318308 7.29874C0.313119 7.00226 0.352654 6.70981 0.479924 6.44146C0.482433 6.43609 0.484942 6.43071 0.487527 6.42517C0.576615 6.23587 0.708085 6.06961 0.868102 5.94017C0.872094 5.93693 0.876087 5.93369 0.8802 5.93035C1.15678 5.70756 1.52723 5.55632 1.87974 5.55804C1.88897 5.55807 1.8982 5.55811 1.9077 5.55815C2.0303 5.55973 2.14376 5.58047 2.25968 5.62117C2.26443 5.6228 2.26918 5.62444 2.27408 5.62612C2.45093 5.68773 2.61325 5.78832 2.75772 5.90979C2.76453 5.91539 2.77134 5.92099 2.77835 5.92676C2.82575 5.9662 2.87062 6.00816 2.91507 6.05108C2.92601 6.06154 2.93707 6.07185 2.94818 6.08211C3.01337 6.14258 3.07224 6.20816 3.12942 6.27674C3.16103 6.31459 3.19349 6.35284 3.23379 6.3807C3.26537 6.37993 3.28384 6.35467 3.30459 6.33277C3.30866 6.32857 3.31272 6.32437 3.31691 6.32004C3.33035 6.30613 3.34371 6.29213 3.35707 6.27814C3.36642 6.26841 3.37578 6.25869 3.38515 6.24897C3.40479 6.22857 3.42439 6.20813 3.44397 6.18766C3.46894 6.16155 3.49397 6.13551 3.51903 6.10949C3.54304 6.08455 3.56701 6.05958 3.59098 6.03461C3.59777 6.02755 3.59777 6.02755 3.60469 6.02036C3.6472 5.97609 3.68942 5.93202 3.72856 5.88447C3.7451 5.86471 3.76285 5.84653 3.78081 5.82814C3.78452 5.82433 3.78822 5.82051 3.79204 5.81658C3.80759 5.80058 3.82319 5.78462 3.83878 5.76866C3.87821 5.72824 3.91705 5.68785 3.95307 5.64408C3.98781 5.60358 4.02613 5.56637 4.06333 5.52834C4.06987 5.52161 4.07642 5.51488 4.08316 5.50795C4.09193 5.49899 4.09193 5.49899 4.10088 5.48984C4.11591 5.47367 4.13011 5.45733 4.14424 5.44034C4.17165 5.40759 4.20082 5.37703 4.23055 5.34655C4.23605 5.34088 4.24155 5.33521 4.24721 5.32937C4.27046 5.30538 4.29375 5.28144 4.31705 5.25749C4.33416 5.23988 4.35125 5.22225 4.36834 5.20462C4.37352 5.19931 4.3787 5.19399 4.38404 5.18852C4.41321 5.15842 4.4409 5.12749 4.46777 5.09517C4.4805 5.07998 4.49376 5.0655 4.50747 5.05126C4.51233 5.04621 4.51718 5.04116 4.52219 5.03596C4.52708 5.03091 4.53198 5.02587 4.53702 5.02067C4.54189 5.01559 4.54676 5.01051 4.55177 5.00528C4.5752 4.98104 4.59888 4.95757 4.62402 4.93525C4.66314 4.90025 4.69899 4.86179 4.73523 4.82366C4.7764 4.78037 4.81753 4.73754 4.86212 4.69799C4.878 4.6837 4.89271 4.66842 4.90735 4.65277C4.9316 4.62684 4.95719 4.60314 4.98348 4.57949C5.00809 4.55704 5.03185 4.5337 5.05566 4.51036C5.10473 4.46245 5.15419 4.41505 5.20397 4.36794C5.21847 4.35418 5.23297 4.34042 5.24746 4.32665C5.25108 4.32321 5.25469 4.31978 5.25841 4.31624C5.29741 4.27916 5.33627 4.24193 5.37512 4.2047C5.38687 4.19345 5.39863 4.18221 5.41039 4.17097C5.52546 4.062 5.52546 4.062 5.63691 3.94912C5.65019 3.93558 5.66388 3.92297 5.67802 3.91041C5.70904 3.88243 5.73851 3.85308 5.76773 3.8231C5.77305 3.81764 5.77838 3.81218 5.78386 3.80656C5.79503 3.79508 5.80619 3.78359 5.81733 3.77209C5.82863 3.76047 5.83996 3.74888 5.85132 3.73732C5.98354 3.60528 5.98354 3.60528 6.03251 3.42636C6.02867 3.3316 5.99036 3.24513 5.92906 3.17548C5.86028 3.11029 5.77395 3.07346 5.68004 3.07674C5.58851 3.08973 5.52249 3.13223 5.4569 3.19712C5.45176 3.20216 5.44662 3.2072 5.44133 3.2124C5.39001 3.26296 5.33979 3.31464 5.28981 3.36663C5.27988 3.37693 5.26995 3.38723 5.26001 3.39753C5.23308 3.42546 5.20617 3.45341 5.17926 3.48136C5.1501 3.51165 5.12093 3.54191 5.09175 3.57218C5.04132 3.6245 4.99091 3.67683 4.9405 3.72917C4.8676 3.80486 4.79468 3.88053 4.72175 3.9562C4.60337 4.07901 4.485 4.20184 4.36665 4.32468C4.36312 4.32835 4.35958 4.33202 4.35594 4.33579C4.30576 4.38788 4.25559 4.43996 4.20541 4.49204C4.1443 4.55547 4.08319 4.61889 4.02208 4.68232C4.01853 4.686 4.01499 4.68968 4.01134 4.69347C3.8897 4.81972 3.76806 4.94594 3.6464 5.07216C3.57361 5.14768 3.50083 5.22322 3.42806 5.29878C3.3783 5.35045 3.32852 5.4021 3.27874 5.45375C3.24999 5.48357 3.22125 5.51339 3.19253 5.54324C3.16627 5.57052 3.13999 5.59778 3.1137 5.62504C3.10417 5.63493 3.09464 5.64482 3.08512 5.65473C3.07223 5.66813 3.05932 5.68151 3.04641 5.69488C3.0408 5.70073 3.0408 5.70073 3.03508 5.7067C3.00893 5.7337 2.98943 5.75266 2.95181 5.75551C2.87088 5.75254 2.80306 5.65515 2.74938 5.5991C2.7415 5.59093 2.73361 5.58276 2.72573 5.5746C2.70428 5.55238 2.68287 5.53011 2.66148 5.50783C2.63831 5.48372 2.61511 5.45966 2.59191 5.4356C2.55177 5.39396 2.51166 5.35229 2.47157 5.31061C2.41355 5.25028 2.35548 5.19 2.2974 5.12972C2.20308 5.03184 2.10878 4.93392 2.01451 4.83598C2.00888 4.83013 2.00324 4.82427 1.99744 4.81824C1.9918 4.81238 1.98616 4.80652 1.98035 4.80048C1.90033 4.71736 1.82031 4.63424 1.74028 4.55113C1.73465 4.54528 1.72901 4.53942 1.72321 4.5334C1.62923 4.4358 1.53524 4.33823 1.44124 4.24066C1.38332 4.18053 1.32541 4.12039 1.26753 4.06023C1.22787 4.01902 1.18821 3.97783 1.14854 3.93664C1.12566 3.9129 1.10279 3.88914 1.07994 3.86537C1.059 3.84359 1.03804 3.82182 1.01707 3.80007C1.00951 3.79222 1.00195 3.78437 0.994405 3.77651C0.953559 3.73397 0.912103 3.69299 0.868102 3.65399C0.855097 3.64168 0.842123 3.62935 0.829193 3.61696C0.802659 3.59183 0.775694 3.5677 0.747712 3.54433C0.710176 3.51291 0.674778 3.47957 0.639424 3.44559C0.618558 3.42562 0.597317 3.4062 0.575885 3.3869C0.518244 3.33471 0.46296 3.28061 0.408972 3.22438C0.402396 3.21759 0.39582 3.2108 0.389045 3.2038C0.351895 3.16522 0.316071 3.12602 0.282173 3.08434C0.276672 3.07763 0.276672 3.07763 0.27106 3.07079C0.0174621 2.75852 -0.0216772 2.37589 0.00889256 1.97922C0.0390313 1.63894 0.155987 1.29988 0.384711 1.04879C0.39283 1.03885 0.400918 1.02889 0.408972 1.01889C0.656536 0.727227 1.08336 0.53817 1.45312 0.503356C1.47288 0.502434 1.49263 0.502094 1.51241 0.501494ZM9.08575 4.93C9.08181 4.93388 9.07786 4.93776 9.0738 4.94177C8.92523 5.08757 8.92523 5.08757 8.86351 5.28227C8.86201 5.38476 8.8939 5.46883 8.96124 5.54522C9.03546 5.61449 9.12507 5.65524 9.2252 5.65357C9.30146 5.64647 9.35324 5.60491 9.40801 5.55281C9.41244 5.54863 9.41687 5.54444 9.42143 5.54013C9.60029 5.38001 9.60029 5.38001 9.68948 5.16163C9.6933 5.05531 9.65559 4.97207 9.59111 4.89202C9.52138 4.82171 9.44685 4.78627 9.34988 4.78331C9.23485 4.78574 9.16459 4.85143 9.08575 4.93Z" fill="#FF284D"/>
</svg>
