<svg width="25" height="25" viewBox="0 0 25 25" fill="none" xmlns="http://www.w3.org/2000/svg">
<path d="M17.9874 21.5149C17.4234 23.1099 15.9024 24.1809 14.2064 24.1809H4.21643C3.04643 24.1809 1.93743 23.6709 1.17243 22.7829C0.419428 21.9079 0.0854283 20.7579 0.255428 19.6249C0.660428 16.9269 2.14043 14.4269 4.65643 12.1809C2.14043 9.93488 0.660428 7.43488 0.255428 4.73688C0.0854283 3.60488 0.419428 2.45388 1.17243 1.57988C1.93743 0.690878 3.04643 0.180878 4.21643 0.180878H14.2064C15.9024 0.180878 17.4234 1.25188 17.9874 2.84688C18.1724 3.36788 17.8994 3.93888 17.3794 4.12288C16.8584 4.30988 16.2874 4.03488 16.1034 3.51488C15.8204 2.71688 15.0584 2.18088 14.2074 2.18088H4.21643C3.62943 2.18088 3.07143 2.43788 2.68843 2.88388C2.31043 3.32288 2.14943 3.87488 2.23443 4.43888C2.60943 6.93788 4.15643 9.27888 6.83243 11.3969C7.07243 11.5859 7.21243 11.8759 7.21243 12.1809C7.21243 12.4859 7.07243 12.7759 6.83243 12.9649C4.15643 15.0829 2.60943 17.4229 2.23443 19.9219C2.14943 20.4859 2.31043 21.0389 2.68843 21.4779C3.07243 21.9239 3.62943 22.1809 4.21643 22.1809H14.2064C15.0584 22.1809 15.8194 21.6449 16.1024 20.8479C16.2874 20.3269 16.8604 20.0519 17.3784 20.2399C17.8994 20.4239 18.1714 20.9959 17.9864 21.5159L17.9874 21.5149ZM9.83743 14.1249L10.3454 14.5299C11.5174 15.4619 13.0724 16.9609 13.8194 18.8049C13.9444 19.1139 13.9074 19.4639 13.7214 19.7399C13.5354 20.0149 13.2254 20.1809 12.8924 20.1809H5.53043C5.19843 20.1809 4.88743 20.0149 4.70143 19.7399C4.51543 19.4649 4.47843 19.1149 4.60243 18.8069C5.34843 16.9539 6.90243 15.4609 8.07443 14.5339L8.59443 14.1229C8.95843 13.8339 9.47343 13.8349 9.83743 14.1249ZM9.21043 16.1849C8.57943 16.6939 7.83943 17.3789 7.24543 18.1809H11.1734C10.5794 17.3829 9.84143 16.6969 9.21043 16.1849ZM24.2114 12.1819C24.2114 15.4909 21.5204 18.1819 18.2114 18.1819C14.9024 18.1819 12.2114 15.4909 12.2114 12.1819C12.2114 8.87288 14.9024 6.18188 18.2114 6.18188C21.5204 6.18188 24.2114 8.87288 24.2114 12.1819ZM22.2114 12.1819C22.2114 9.97588 20.4174 8.18188 18.2114 8.18188C16.0054 8.18188 14.2114 9.97588 14.2114 12.1819C14.2114 14.3879 16.0054 16.1819 18.2114 16.1819C20.4174 16.1819 22.2114 14.3879 22.2114 12.1819ZM19.2114 11.7679V10.1819C19.2114 9.62988 18.7644 9.18188 18.2114 9.18188C17.6584 9.18188 17.2114 9.62988 17.2114 10.1819V12.1819C17.2114 12.4469 17.3164 12.7019 17.5044 12.8889L18.5044 13.8889C18.6994 14.0839 18.9554 14.1819 19.2114 14.1819C19.4674 14.1819 19.7234 14.0839 19.9184 13.8889C20.3094 13.4979 20.3094 12.8659 19.9184 12.4749L19.2114 11.7679Z" fill="#6C7380"/>
</svg>
