<svg width="15" height="16" viewBox="0 0 15 16" fill="none" xmlns="http://www.w3.org/2000/svg">
<path d="M7.5418 9.08572C9.83469 9.29297 11.5816 11.2304 11.5511 13.5325V13.6492C11.5511 14.0949 11.1898 14.4562 10.7441 14.4562C10.2984 14.4562 9.93706 14.0949 9.93706 13.6492V13.5002C9.96132 12.0867 8.91824 10.8814 7.51597 10.7025C6.03575 10.5557 4.71679 11.6367 4.57001 13.1169C4.56133 13.2044 4.55694 13.2923 4.55687 13.3802V13.6492C4.55687 14.0949 4.19555 14.4562 3.74984 14.4562C3.30413 14.4562 2.94281 14.0949 2.94281 13.6492V13.3802C2.94543 11.0004 4.87678 9.07331 7.25656 9.07593C7.35171 9.07606 7.44684 9.07931 7.5418 9.08572Z" fill="#FF284D"/>
<path d="M7.24685 8C5.46402 8 4.01873 6.55471 4.01873 4.77188C4.01873 2.98905 5.46402 1.54376 7.24685 1.54376C9.02969 1.54376 10.475 2.98905 10.475 4.77188C10.4732 6.55398 9.02895 7.99821 7.24685 8ZM7.24685 3.15782C6.35544 3.15782 5.63279 3.88047 5.63279 4.77188C5.63279 5.6633 6.35544 6.38594 7.24685 6.38594C8.13827 6.38594 8.86091 5.6633 8.86091 4.77188C8.86091 3.88047 8.13827 3.15782 7.24685 3.15782Z" fill="#FF284D"/>
</svg>
